<?xml version="1.0" standalone="no"?>
<!DOCTYPE svg PUBLIC "-//W3C//DTD SVG 20010904//EN"
 "http://www.w3.org/TR/2001/REC-SVG-20010904/DTD/svg10.dtd">
<svg version="1.0" xmlns="http://www.w3.org/2000/svg"
 width="512.000000pt" height="512.000000pt" viewBox="0 0 512.000000 512.000000"
 preserveAspectRatio="xMidYMid meet">
<metadata>
Created by potrace 1.11, written by Peter Selinger 2001-2013
</metadata>
<g transform="translate(0.000000,512.000000) scale(0.100000,-0.100000)"
fill="#000000" stroke="none">
<path d="M1278 5113 c705 -2 1859 -2 2565 0 705 1 128 2 -1283 2 -1411 0
-1988 -1 -1282 -2z"/>
<path d="M4195 4979 c-44 -3 -91 -12 -105 -20 -83 -49 -104 -67 -139 -115 -21
-29 -41 -50 -45 -46 -4 4 -6 3 -5 -3 4 -15 -11 -55 -21 -55 -5 0 -7 -7 -4 -15
4 -8 1 -15 -6 -15 -6 0 -8 -4 -5 -10 3 -5 1 -10 -5 -10 -6 0 -9 -4 -6 -9 3 -5
-4 -21 -16 -37 -13 -15 -16 -24 -8 -19 8 5 -1 -18 -19 -51 -34 -60 -79 -111
-94 -106 -5 1 -6 -2 -3 -7 7 -10 -49 -60 -92 -82 -15 -8 -33 -20 -41 -27 -12
-11 -15 -11 -22 0 -7 10 -9 9 -9 -3 0 -19 -95 -64 -112 -53 -6 4 -8 3 -5 -2 5
-9 -150 -62 -210 -71 -16 -2 -35 -5 -43 -7 -9 -1 -20 -5 -25 -8 -15 -9 -181
-35 -325 -52 -69 -8 -147 -17 -175 -21 -119 -14 -280 -24 -415 -26 -80 -1
-149 -5 -155 -9 -5 -4 -28 -11 -50 -15 -45 -9 -43 -9 -70 -20 -99 -40 -135
-53 -135 -47 0 4 -4 2 -8 -4 -9 -13 -71 -44 -89 -44 -7 0 -13 -4 -13 -10 0 -5
-5 -10 -12 -10 -31 0 -282 -172 -386 -265 -19 -16 -41 -34 -49 -39 -9 -5 -29
-24 -46 -43 -23 -27 -32 -31 -43 -22 -12 9 -13 9 -8 -4 4 -11 -7 -27 -32 -49
-21 -18 -47 -43 -57 -55 -11 -12 -25 -20 -30 -16 -6 3 -7 2 -4 -4 8 -13 -37
-56 -48 -46 -4 5 -5 3 -2 -3 8 -13 -119 -137 -133 -129 -5 3 -8 0 -5 -7 3 -7
-11 -31 -31 -53 -19 -22 -51 -57 -70 -79 -19 -21 -47 -57 -63 -80 -16 -22 -41
-53 -56 -68 -15 -16 -24 -28 -20 -28 4 0 2 -7 -5 -15 -7 -8 -17 -12 -24 -8 -6
3 -8 3 -4 -1 4 -5 -13 -36 -38 -70 -24 -33 -75 -105 -112 -158 -38 -54 -72
-95 -76 -93 -3 3 -4 2 -1 -1 5 -8 -51 -93 -74 -112 -13 -11 -13 -12 -1 -6 12
6 12 4 -1 -12 -49 -57 -169 -347 -169 -407 0 -33 16 -41 178 -93 95 -30 121
-42 117 -54 -3 -8 3 -5 14 7 10 12 22 19 26 15 5 -4 5 -1 1 5 -6 11 65 170 83
183 3 3 17 27 31 55 27 54 109 160 185 240 l47 50 -28 -50 c-15 -27 -33 -53
-39 -57 -5 -4 -7 -8 -3 -8 4 0 -9 -37 -28 -82 -20 -46 -43 -103 -52 -128 -8
-25 -19 -51 -25 -57 -5 -7 -7 -13 -4 -13 4 0 -1 -19 -9 -42 -16 -43 -19 -55
-30 -116 -5 -26 -3 -32 11 -32 9 0 78 -20 154 -45 76 -25 145 -45 153 -45 14
0 22 13 33 55 6 24 89 151 108 168 12 10 16 16 9 12 -6 -3 6 23 29 59 23 36
45 64 49 61 4 -3 7 3 6 12 0 10 5 18 13 18 8 0 15 10 16 21 1 12 18 44 38 72
20 27 37 55 37 61 0 7 6 9 12 5 7 -4 10 -4 6 1 -8 9 42 105 55 105 4 0 7 5 7
12 0 6 12 27 28 47 15 20 34 49 44 66 9 16 21 29 28 27 6 -1 9 2 5 7 -7 12
102 140 152 178 20 15 48 39 62 52 37 33 138 101 152 101 6 0 8 -7 5 -16 -3
-8 -2 -12 3 -9 8 4 21 -19 26 -45 1 -3 13 -29 28 -57 15 -29 27 -55 27 -58 0
-3 19 -26 44 -50 l44 -45 8 -122 c6 -82 13 -123 21 -123 6 0 14 -3 17 -6 16
-15 48 -372 66 -739 6 -113 14 -537 17 -942 l6 -738 76 0 76 0 -3 32 c-41 456
-45 734 -12 838 6 19 11 84 10 145 -1 106 -6 156 -50 440 -24 156 -25 241 -5
444 8 84 17 222 20 305 4 83 8 161 11 174 4 22 5 22 200 22 l196 0 -6 -27 c-3
-16 -10 -93 -16 -173 -6 -80 -14 -156 -17 -170 -4 -14 -5 -29 -4 -34 1 -4 -6
-121 -14 -260 -23 -351 -30 -1027 -16 -1365 14 -331 18 -371 37 -371 12 0 14
45 15 268 0 147 4 560 9 917 8 650 23 999 42 1023 6 7 8 15 5 18 -3 3 -1 20 4
37 6 18 12 43 15 57 16 79 26 102 43 97 10 -2 18 1 18 7 1 6 3 54 6 106 3 52
10 108 16 124 14 36 62 87 74 79 6 -3 7 -1 3 5 -7 11 35 100 73 156 11 17 18
32 16 36 -4 7 32 4 160 -11 122 -15 262 -45 370 -81 101 -33 297 -125 363
-169 24 -16 46 -29 50 -29 12 0 72 -131 65 -142 -3 -6 -1 -8 5 -4 6 3 13 -2
17 -13 11 -35 86 -144 126 -182 21 -20 39 -35 39 -32 0 4 8 -1 18 -9 71 -63
211 -86 314 -51 39 13 59 16 62 9 2 -6 5 -3 5 7 1 9 6 17 12 17 14 0 61 36
101 77 17 18 35 30 41 26 6 -3 7 -1 3 5 -3 6 0 17 8 25 26 26 94 163 125 253
18 49 34 96 38 104 3 8 7 22 8 30 1 8 9 49 19 90 32 146 47 277 53 466 4 132
2 197 -5 210 -9 15 -11 -4 -12 -86 0 -170 -20 -427 -39 -530 -25 -127 -50
-212 -62 -205 -5 3 -6 0 -3 -8 7 -20 -44 -144 -62 -151 -9 -3 -13 -10 -9 -15
6 -11 -49 -99 -92 -147 -32 -36 -96 -85 -115 -88 -7 -1 -19 -5 -26 -10 -7 -4
-38 -10 -69 -13 -45 -5 -54 -3 -48 7 5 9 4 11 -3 6 -14 -9 -111 40 -119 59 -3
8 -8 13 -13 10 -7 -4 -76 65 -117 118 -12 15 -19 36 -16 46 6 24 46 32 78 15
15 -7 25 -9 25 -3 0 6 6 7 13 3 6 -4 9 -4 5 1 -12 13 12 35 37 35 14 0 25 7
28 19 6 24 32 22 52 -5 9 -12 14 -14 15 -6 0 7 5 10 10 7 6 -3 10 1 10 9 0 9
6 15 13 14 7 -2 11 5 9 15 -2 9 4 20 13 23 8 3 15 13 15 20 0 8 7 17 15 20 8
4 15 14 15 24 0 11 5 22 10 25 6 4 8 11 5 16 -4 5 -1 9 4 9 6 0 11 9 11 20 0
11 -4 20 -10 20 -5 0 -10 7 -10 15 0 8 7 15 16 15 11 0 15 6 11 20 -3 11 -1
18 4 14 5 -3 9 2 9 10 0 8 -5 18 -10 21 -6 4 -8 11 -5 16 3 5 -1 6 -9 3 -10
-4 -14 0 -11 13 1 10 -4 25 -12 34 -12 15 -11 19 9 35 13 11 25 28 26 39 2 10
12 30 22 42 13 17 16 31 11 50 -9 33 7 70 33 77 16 4 18 11 13 43 -3 21 -3 32
0 26 6 -17 30 -16 36 1 4 9 -1 17 -11 19 -16 4 -16 5 0 6 14 1 16 7 12 31 -4
19 -2 30 5 30 6 0 11 7 11 15 0 9 -6 12 -17 8 -15 -5 -14 -2 4 18 16 18 23 40
26 85 3 58 2 61 -17 56 -17 -4 -19 -2 -8 9 16 18 15 29 -3 29 -8 0 -14 3 -13
8 5 19 -15 72 -24 66 -7 -5 -8 -2 -2 7 5 8 7 22 6 32 -2 10 4 30 13 43 9 14
14 32 11 40 -3 9 8 21 32 33 36 19 37 22 10 25 -7 0 -14 8 -16 17 -2 11 4 15
20 15 16 -1 22 4 20 16 -1 10 4 31 13 47 8 17 15 39 15 50 0 26 21 72 30 66 4
-2 5 6 3 19 -3 13 3 38 11 55 11 20 15 43 11 64 -5 24 -1 39 15 59 16 22 19
32 11 47 -14 25 -15 49 -2 36 9 -9 52 -200 65 -290 4 -22 11 -60 17 -85 6 -25
13 -57 16 -73 11 -57 24 -39 17 25 -10 88 -9 87 -17 94 -4 4 -7 18 -7 31 0 13
-14 78 -30 144 -17 66 -27 125 -24 131 5 7 2 8 -5 4 -8 -5 -11 -3 -10 5 2 8
-4 30 -13 50 -9 20 -19 47 -23 60 -20 64 -157 310 -210 377 -49 62 -142 133
-199 152 -19 6 -38 16 -42 21 -3 5 -10 7 -15 3 -5 -3 -15 -2 -22 3 -7 5 -48 6
-92 2z m130 -38 c16 -6 9 -10 -30 -17 -28 -4 -56 -8 -62 -7 -7 0 -13 -3 -13
-9 0 -5 -4 -6 -10 -3 -5 3 -10 2 -10 -3 0 -5 -15 -17 -32 -27 -18 -9 -51 -39
-73 -65 -22 -27 -44 -46 -50 -43 -5 4 -7 3 -3 -2 7 -7 -17 -63 -31 -75 -9 -7
-27 -47 -49 -110 -11 -30 -26 -68 -33 -85 -14 -35 -15 -41 -17 -78 -1 -16 -6
-25 -12 -22 -5 3 -10 -1 -10 -9 0 -9 -5 -16 -11 -16 -5 0 -7 -4 -4 -10 3 -5 1
-18 -4 -29 -27 -50 -52 -303 -53 -544 -1 -97 -2 -176 -4 -175 -2 3 -12 75 -13
104 -1 13 -43 13 -53 -1 -13 -18 -21 5 -10 30 8 18 8 26 0 31 -15 9 -4 252 17
392 20 135 53 283 67 299 6 8 8 16 5 19 -8 8 21 85 41 108 9 11 11 16 4 12
-16 -9 14 55 30 65 5 3 9 8 7 10 -5 9 13 49 22 49 6 0 8 4 5 8 -7 12 23 54 35
47 5 -3 7 0 4 7 -10 26 97 120 162 144 41 14 156 17 188 5z m-555 -496 c-7 -8
-10 -15 -8 -15 3 0 1 -21 -4 -47 -45 -236 -61 -415 -62 -728 0 -115 -2 -202
-4 -192 -3 14 -15 17 -60 18 -161 2 -360 10 -382 15 -66 15 -523 18 -810 5
-134 -6 -168 -5 -180 6 -13 12 -18 82 -11 188 6 109 75 286 134 343 31 30 39
33 143 42 186 18 364 40 482 61 62 11 127 22 145 25 50 8 61 11 77 17 8 4 53
16 100 27 46 12 100 28 118 36 19 7 38 12 42 9 5 -3 10 -2 12 2 5 12 171 116
185 116 7 0 10 4 7 9 -3 4 6 13 20 19 14 7 33 23 41 36 9 12 18 23 21 23 4 0
1 -7 -6 -15z m107 -187 c-3 -8 -6 -5 -6 6 -1 11 2 17 5 13 3 -3 4 -12 1 -19z
m-10 -75 c-3 -10 -5 -4 -5 12 0 17 2 24 5 18 2 -7 2 -21 0 -30z m-13 -112 c-3
-45 -9 -80 -11 -77 -3 3 -2 41 2 86 4 45 9 79 12 76 2 -2 1 -41 -3 -85z
m-1566 -19 c53 -7 53 -7 35 -27 -21 -22 -22 -24 -30 -55 -3 -11 -10 -20 -16
-20 -6 0 -8 -2 -5 -6 3 -3 -3 -27 -13 -54 -10 -28 -24 -90 -31 -140 -7 -49
-15 -84 -19 -78 -6 9 -12 8 -24 -2 -18 -15 -195 -31 -195 -17 0 4 -6 7 -14 7
-8 0 -17 4 -20 9 -10 15 13 121 32 149 10 15 33 62 51 104 55 127 96 148 249
130z m2068 -187 c18 -14 18 -14 -7 -15 -67 0 -116 -112 -106 -241 6 -78 42
-186 73 -216 20 -21 17 -25 -8 -12 -37 18 -77 69 -90 113 -30 103 1 292 57
352 36 37 51 41 81 19z m-529 -427 c-3 -7 -5 -2 -5 12 0 14 2 19 5 13 2 -7 2
-19 0 -25z m30 -180 c-3 -8 -6 -5 -6 6 -1 11 2 17 5 13 3 -3 4 -12 1 -19z m17
-68 c4 -25 3 -31 -4 -20 -5 8 -10 26 -10 39 0 32 6 24 14 -19z m24 -140 c0
-22 -1 -22 -8 5 -4 17 -8 39 -8 50 0 16 2 15 8 -5 4 -14 8 -36 8 -50z m9 -52
c-3 -8 -6 -5 -6 6 -1 11 2 17 5 13 3 -3 4 -12 1 -19z m-1771 -43 c18 -27 10
-53 -11 -35 -9 8 -17 6 -29 -6 -10 -9 -19 -14 -22 -11 -10 10 7 47 22 47 8 0
14 7 14 15 0 21 7 19 26 -10z m1781 3 c-3 -8 -6 -5 -6 6 -1 11 2 17 5 13 3 -3
4 -12 1 -19z m-1863 -40 c2 -10 0 -18 -5 -18 -5 0 -9 4 -9 8 0 5 -6 9 -14 9
-8 0 -12 -6 -9 -13 2 -6 0 -15 -6 -19 -7 -3 -11 2 -11 14 0 12 -5 21 -11 21
-5 0 -7 -4 -4 -10 3 -5 1 -10 -4 -10 -6 0 -12 -10 -12 -22 l-2 -23 -4 23 c-2
12 -8 22 -13 22 -4 0 -6 -9 -3 -19 7 -26 -28 -22 -38 5 -12 30 -10 34 16 34
14 0 25 5 25 10 0 6 21 9 49 8 38 -2 51 -7 55 -20z m1873 0 c-3 -8 -6 -5 -6 6
-1 11 2 17 5 13 3 -3 4 -12 1 -19z m52 -143 c-1 -25 -34 47 -42 90 -5 22 0 17
18 -20 13 -27 24 -59 24 -70z"/>
<path d="M3650 4340 c-9 -6 -10 -10 -3 -10 6 0 15 5 18 10 8 12 4 12 -15 0z"/>
<path d="M4535 2951 c-3 -5 -2 -12 3 -15 5 -3 9 1 9 9 0 17 -3 19 -12 6z"/>
<path d="M446 2792 c-3 -5 1 -9 9 -9 8 0 12 4 9 9 -3 4 -7 8 -9 8 -2 0 -6 -4
-9 -8z"/>
</g>
</svg>
