<?xml version="1.0" encoding="UTF-8" standalone="no"?>
<!DOCTYPE svg PUBLIC "-//W3C//DTD SVG 1.1//EN"
 "http://www.w3.org/Graphics/SVG/1.1/DTD/svg11.dtd">
<!-- Generated by graphviz version 2.28.0 (20110507.0327)
 -->
<!-- Title: G Pages: 1 -->
<svg width="460pt" height="798pt"
 viewBox="0.00 0.00 460.00 798.00" xmlns="http://www.w3.org/2000/svg" xmlns:xlink="http://www.w3.org/1999/xlink">
<g id="graph1" class="graph" transform="scale(1 1) rotate(0) translate(4 794)">
<title>G</title>
<polygon fill="white" stroke="white" points="-4,5 -4,-794 457,-794 457,5 -4,5"/>
<g id="graph2" class="cluster"><title>cluster_global</title>
<polyline fill="none" stroke="gray" points="220,-8 432,-8 "/>
<path fill="none" stroke="gray" d="M432,-8C438,-8 444,-14 444,-20"/>
<polyline fill="none" stroke="gray" points="444,-20 444,-770 "/>
<path fill="none" stroke="gray" d="M444,-770C444,-776 438,-782 432,-782"/>
<polyline fill="none" stroke="gray" points="432,-782 220,-782 "/>
<path fill="none" stroke="gray" d="M220,-782C214,-782 208,-776 208,-770"/>
<polyline fill="none" stroke="gray" points="208,-770 208,-20 "/>
<path fill="none" stroke="gray" d="M208,-20C208,-14 214,-8 220,-8"/>
<text text-anchor="middle" x="326" y="-769.2" font-family="Times New Roman,serif" font-size="11.00" fill="gray">global</text>
</g>
<!-- \\MLAData -->
<g id="node2" class="node"><title>\\MLAData</title>
<a xlink:href="includes.class-mla-data.html" xlink:title="MLAData" target="_parent">
<polygon fill="none" stroke="black" points="358,-754 294,-754 294,-718 358,-718 358,-754"/>
<text text-anchor="middle" x="326" y="-733.2" font-family="Courier,monospace" font-size="11.00">MLAData</text>
</a>
</g>
<!-- \\MLAEdit -->
<g id="node3" class="node"><title>\\MLAEdit</title>
<a xlink:href="includes.class-mla-edit-media.html" xlink:title="MLAEdit" target="_parent">
<polygon fill="none" stroke="black" points="358,-700 294,-700 294,-664 358,-664 358,-700"/>
<text text-anchor="middle" x="326" y="-679.2" font-family="Courier,monospace" font-size="11.00">MLAEdit</text>
</a>
</g>
<!-- \\MLA_List_Table -->
<g id="node4" class="node"><title>\\MLA_List_Table</title>
<a xlink:href="includes.class-mla-list-table.html" xlink:title="MLA_List_Table" target="_parent">
<polygon fill="none" stroke="black" points="381.5,-646 270.5,-646 270.5,-610 381.5,-610 381.5,-646"/>
<text text-anchor="middle" x="326" y="-625.2" font-family="Courier,monospace" font-size="11.00">MLA_List_Table</text>
</a>
</g>
<!-- \\WP_List_Table -->
<g id="node17" class="node"><title>\\WP_List_Table</title>
<ellipse fill="none" stroke="black" cx="72" cy="-169" rx="71.4873" ry="18"/>
<text text-anchor="middle" x="72" y="-165.3" font-family="Times New Roman,serif" font-size="14.00" fill="gray">\WP_List_Table</text>
</g>
<!-- \\MLA_List_Table&#45;&gt;\\WP_List_Table -->
<g id="edge3" class="edge"><title>\\MLA_List_Table&#45;&gt;\\WP_List_Table</title>
<path fill="none" stroke="black" d="M270.355,-626.837C248.569,-623.698 224.743,-616.515 208,-601 88.2448,-490.027 73.9534,-274.607 72.8183,-197.394"/>
<polygon fill="none" stroke="black" points="76.3154,-197.005 72.7353,-187.034 69.3156,-197.061 76.3154,-197.005"/>
</g>
<!-- \\MLA -->
<g id="node5" class="node"><title>\\MLA</title>
<a xlink:href="includes.class-mla-main.html" xlink:title="MLA" target="_parent">
<polygon fill="none" stroke="black" points="353,-592 299,-592 299,-556 353,-556 353,-592"/>
<text text-anchor="middle" x="326" y="-571.2" font-family="Courier,monospace" font-size="11.00">MLA</text>
</a>
</g>
<!-- \\MLAModal -->
<g id="node6" class="node"><title>\\MLAModal</title>
<a xlink:href="includes.class-mla-media-modal.html" xlink:title="MLAModal" target="_parent">
<polygon fill="none" stroke="black" points="361.5,-538 290.5,-538 290.5,-502 361.5,-502 361.5,-538"/>
<text text-anchor="middle" x="326" y="-517.2" font-family="Courier,monospace" font-size="11.00">MLAModal</text>
</a>
</g>
<!-- \\MLAMime -->
<g id="node7" class="node"><title>\\MLAMime</title>
<a xlink:href="includes.class-mla-mime-types.html" xlink:title="MLAMime" target="_parent">
<polygon fill="none" stroke="black" points="358,-484 294,-484 294,-448 358,-448 358,-484"/>
<text text-anchor="middle" x="326" y="-463.2" font-family="Courier,monospace" font-size="11.00">MLAMime</text>
</a>
</g>
<!-- \\MLAObjects -->
<g id="node8" class="node"><title>\\MLAObjects</title>
<a xlink:href="includes.class-mla-objects.html" xlink:title="MLAObjects" target="_parent">
<polygon fill="none" stroke="black" points="368,-430 284,-430 284,-394 368,-394 368,-430"/>
<text text-anchor="middle" x="326" y="-409.2" font-family="Courier,monospace" font-size="11.00">MLAObjects</text>
</a>
</g>
<!-- \\MLAOptions -->
<g id="node9" class="node"><title>\\MLAOptions</title>
<a xlink:href="includes.class-mla-options.html" xlink:title="MLAOptions" target="_parent">
<polygon fill="none" stroke="black" points="368,-376 284,-376 284,-340 368,-340 368,-376"/>
<text text-anchor="middle" x="326" y="-355.2" font-family="Courier,monospace" font-size="11.00">MLAOptions</text>
</a>
</g>
<!-- \\MLASettings -->
<g id="node10" class="node"><title>\\MLASettings</title>
<a xlink:href="includes.class-mla-settings.html" xlink:title="MLASettings" target="_parent">
<polygon fill="none" stroke="black" points="371.5,-322 280.5,-322 280.5,-286 371.5,-286 371.5,-322"/>
<text text-anchor="middle" x="326" y="-301.2" font-family="Courier,monospace" font-size="11.00">MLASettings</text>
</a>
</g>
<!-- \\MLAShortcodes -->
<g id="node11" class="node"><title>\\MLAShortcodes</title>
<a xlink:href="includes.class-mla-shortcodes.html" xlink:title="MLAShortcodes" target="_parent">
<polygon fill="none" stroke="black" points="378,-268 274,-268 274,-232 378,-232 378,-268"/>
<text text-anchor="middle" x="326" y="-247.2" font-family="Courier,monospace" font-size="11.00">MLAShortcodes</text>
</a>
</g>
<!-- \\MLA_Upload_List_Table -->
<g id="node12" class="node"><title>\\MLA_Upload_List_Table</title>
<a xlink:href="includes.class-mla-upload-list-table.html" xlink:title="MLA_Upload_List_Table" target="_parent">
<polygon fill="none" stroke="black" points="405,-214 247,-214 247,-178 405,-178 405,-214"/>
<text text-anchor="middle" x="326" y="-193.2" font-family="Courier,monospace" font-size="11.00">MLA_Upload_List_Table</text>
</a>
</g>
<!-- \\MLA_Upload_List_Table&#45;&gt;\\WP_List_Table -->
<g id="edge5" class="edge"><title>\\MLA_Upload_List_Table&#45;&gt;\\WP_List_Table</title>
<path fill="none" stroke="black" d="M246.991,-187.642C215.426,-184.26 179.137,-180.372 147.895,-177.024"/>
<polygon fill="none" stroke="black" points="148.257,-173.543 137.941,-175.958 147.511,-180.503 148.257,-173.543"/>
</g>
<!-- \\MLA_Upload_Optional_List_Table -->
<g id="node13" class="node"><title>\\MLA_Upload_Optional_List_Table</title>
<a xlink:href="includes.class-mla-upload-optional-list-table.html" xlink:title="MLA_Upload_Optional_List_Table" target="_parent">
<polygon fill="none" stroke="black" points="435.5,-160 216.5,-160 216.5,-124 435.5,-124 435.5,-160"/>
<text text-anchor="middle" x="326" y="-139.2" font-family="Courier,monospace" font-size="11.00">MLA_Upload_Optional_List_Table</text>
</a>
</g>
<!-- \\MLA_Upload_Optional_List_Table&#45;&gt;\\WP_List_Table -->
<g id="edge7" class="edge"><title>\\MLA_Upload_Optional_List_Table&#45;&gt;\\WP_List_Table</title>
<path fill="none" stroke="black" d="M216.301,-153.646C193.301,-156.111 169.518,-158.659 148.095,-160.954"/>
<polygon fill="none" stroke="black" points="147.676,-157.479 138.106,-162.024 148.422,-164.439 147.676,-157.479"/>
</g>
<!-- \\MLA_View_List_Table -->
<g id="node14" class="node"><title>\\MLA_View_List_Table</title>
<a xlink:href="includes.class-mla-view-list-table.html" xlink:title="MLA_View_List_Table" target="_parent">
<polygon fill="none" stroke="black" points="398.5,-106 253.5,-106 253.5,-70 398.5,-70 398.5,-106"/>
<text text-anchor="middle" x="326" y="-85.2" font-family="Courier,monospace" font-size="11.00">MLA_View_List_Table</text>
</a>
</g>
<!-- \\MLA_View_List_Table&#45;&gt;\\WP_List_Table -->
<g id="edge9" class="edge"><title>\\MLA_View_List_Table&#45;&gt;\\WP_List_Table</title>
<path fill="none" stroke="black" d="M253.377,-102.69C238.275,-106.299 222.522,-110.45 208,-115 177,-124.714 143.05,-138.308 116.952,-149.426"/>
<polygon fill="none" stroke="black" points="115.516,-146.234 107.712,-153.399 118.281,-152.665 115.516,-146.234"/>
</g>
<!-- \\MLATest -->
<g id="node15" class="node"><title>\\MLATest</title>
<a xlink:href="tests.class-mla-tests.html" xlink:title="MLATest" target="_parent">
<polygon fill="none" stroke="black" points="358,-52 294,-52 294,-16 358,-16 358,-52"/>
<text text-anchor="middle" x="326" y="-31.2" font-family="Courier,monospace" font-size="11.00">MLATest</text>
</a>
</g>
</g>
</svg>
