<?xml version="1.0" encoding="UTF-8" standalone="no"?>
<!DOCTYPE svg PUBLIC "-//W3C//DTD SVG 1.1//EN"
 "http://www.w3.org/Graphics/SVG/1.1/DTD/svg11.dtd">
<!-- Generated by graphviz version 2.28.0 (20110507.0327)
 -->
<!-- Title: G Pages: 1 -->
<svg width="472pt" height="960pt"
 viewBox="0.00 0.00 472.00 960.00" xmlns="http://www.w3.org/2000/svg" xmlns:xlink="http://www.w3.org/1999/xlink">
<g id="graph1" class="graph" transform="scale(1 1) rotate(0) translate(4 956)">
<title>G</title>
<polygon fill="white" stroke="white" points="-4,5 -4,-956 469,-956 469,5 -4,5"/>
<g id="graph2" class="cluster"><title>cluster_global</title>
<polyline fill="none" stroke="gray" points="232,-8 444,-8 "/>
<path fill="none" stroke="gray" d="M444,-8C450,-8 456,-14 456,-20"/>
<polyline fill="none" stroke="gray" points="456,-20 456,-932 "/>
<path fill="none" stroke="gray" d="M456,-932C456,-938 450,-944 444,-944"/>
<polyline fill="none" stroke="gray" points="444,-944 232,-944 "/>
<path fill="none" stroke="gray" d="M232,-944C226,-944 220,-938 220,-932"/>
<polyline fill="none" stroke="gray" points="220,-932 220,-20 "/>
<path fill="none" stroke="gray" d="M220,-20C220,-14 226,-8 232,-8"/>
<text text-anchor="middle" x="338" y="-931.2" font-family="Times New Roman,serif" font-size="11.00" fill="gray">global</text>
</g>
<!-- \\MNA_Pad_Counts_Walker -->
<g id="node2" class="node"><title>\\MNA_Pad_Counts_Walker</title>
<a xlink:href="examples.twentytwelve-mla.content-tosca30-dropdown.html" xlink:title="MNA_Pad_Counts_Walker" target="_parent">
<polygon fill="none" stroke="black" points="417,-754 259,-754 259,-718 417,-718 417,-754"/>
<text text-anchor="middle" x="338" y="-733.2" font-family="Courier,monospace" font-size="11.00">MNA_Pad_Counts_Walker</text>
</a>
</g>
<!-- \\Walker_Category -->
<g id="node20" class="node"><title>\\Walker_Category</title>
<ellipse fill="none" stroke="black" cx="78" cy="-817" rx="77.1866" ry="18"/>
<text text-anchor="middle" x="78" y="-813.3" font-family="Times New Roman,serif" font-size="14.00" fill="gray">\Walker_Category</text>
</g>
<!-- \\MNA_Pad_Counts_Walker&#45;&gt;\\Walker_Category -->
<g id="edge3" class="edge"><title>\\MNA_Pad_Counts_Walker&#45;&gt;\\Walker_Category</title>
<path fill="none" stroke="black" d="M258.874,-752.438C245.812,-755.64 232.461,-759.196 220,-763 187.818,-772.824 152.458,-786.373 125.199,-797.441"/>
<polygon fill="none" stroke="black" points="123.842,-794.215 115.914,-801.243 126.494,-800.693 123.842,-794.215"/>
</g>
<!-- \\MLAData -->
<g id="node3" class="node"><title>\\MLAData</title>
<a xlink:href="includes.class-mla-data.html" xlink:title="MLAData" target="_parent">
<polygon fill="none" stroke="black" points="370,-862 306,-862 306,-826 370,-826 370,-862"/>
<text text-anchor="middle" x="338" y="-841.2" font-family="Courier,monospace" font-size="11.00">MLAData</text>
</a>
</g>
<!-- \\MLAEdit -->
<g id="node4" class="node"><title>\\MLAEdit</title>
<a xlink:href="includes.class-mla-edit-media.html" xlink:title="MLAEdit" target="_parent">
<polygon fill="none" stroke="black" points="370,-808 306,-808 306,-772 370,-772 370,-808"/>
<text text-anchor="middle" x="338" y="-787.2" font-family="Courier,monospace" font-size="11.00">MLAEdit</text>
</a>
</g>
<!-- \\MLA_Checklist_Walker -->
<g id="node5" class="node"><title>\\MLA_Checklist_Walker</title>
<a xlink:href="includes.class-mla-edit-media.html" xlink:title="MLA_Checklist_Walker" target="_parent">
<polygon fill="none" stroke="black" points="414,-916 262,-916 262,-880 414,-880 414,-916"/>
<text text-anchor="middle" x="338" y="-895.2" font-family="Courier,monospace" font-size="11.00">MLA_Checklist_Walker</text>
</a>
</g>
<!-- \\MLA_Checklist_Walker&#45;&gt;\\Walker_Category -->
<g id="edge5" class="edge"><title>\\MLA_Checklist_Walker&#45;&gt;\\Walker_Category</title>
<path fill="none" stroke="black" d="M261.691,-882.248C247.739,-878.871 233.359,-875.078 220,-871 187.818,-861.176 152.458,-847.627 125.199,-836.559"/>
<polygon fill="none" stroke="black" points="126.494,-833.307 115.914,-832.757 123.842,-839.785 126.494,-833.307"/>
</g>
<!-- \\MLA_List_Table -->
<g id="node6" class="node"><title>\\MLA_List_Table</title>
<a xlink:href="includes.class-mla-list-table.html" xlink:title="MLA_List_Table" target="_parent">
<polygon fill="none" stroke="black" points="393.5,-430 282.5,-430 282.5,-394 393.5,-394 393.5,-430"/>
<text text-anchor="middle" x="338" y="-409.2" font-family="Courier,monospace" font-size="11.00">MLA_List_Table</text>
</a>
</g>
<!-- \\WP_List_Table -->
<g id="node23" class="node"><title>\\WP_List_Table</title>
<ellipse fill="none" stroke="black" cx="78" cy="-304" rx="71.4873" ry="18"/>
<text text-anchor="middle" x="78" y="-300.3" font-family="Times New Roman,serif" font-size="14.00" fill="gray">\WP_List_Table</text>
</g>
<!-- \\MLA_List_Table&#45;&gt;\\WP_List_Table -->
<g id="edge7" class="edge"><title>\\MLA_List_Table&#45;&gt;\\WP_List_Table</title>
<path fill="none" stroke="black" d="M282.408,-402.879C262.387,-398.635 239.793,-392.771 220,-385 180.875,-369.639 139.567,-344.748 111.849,-326.607"/>
<polygon fill="none" stroke="black" points="113.616,-323.58 103.347,-320.976 109.751,-329.416 113.616,-323.58"/>
</g>
<!-- \\MLA -->
<g id="node7" class="node"><title>\\MLA</title>
<a xlink:href="includes.class-mla-main.html" xlink:title="MLA" target="_parent">
<polygon fill="none" stroke="black" points="365,-646 311,-646 311,-610 365,-610 365,-646"/>
<text text-anchor="middle" x="338" y="-625.2" font-family="Courier,monospace" font-size="11.00">MLA</text>
</a>
</g>
<!-- \\MLAModal -->
<g id="node8" class="node"><title>\\MLAModal</title>
<a xlink:href="includes.class-mla-media-modal.html" xlink:title="MLAModal" target="_parent">
<polygon fill="none" stroke="black" points="373.5,-592 302.5,-592 302.5,-556 373.5,-556 373.5,-592"/>
<text text-anchor="middle" x="338" y="-571.2" font-family="Courier,monospace" font-size="11.00">MLAModal</text>
</a>
</g>
<!-- \\MLAMime -->
<g id="node9" class="node"><title>\\MLAMime</title>
<a xlink:href="includes.class-mla-mime-types.html" xlink:title="MLAMime" target="_parent">
<polygon fill="none" stroke="black" points="370,-538 306,-538 306,-502 370,-502 370,-538"/>
<text text-anchor="middle" x="338" y="-517.2" font-family="Courier,monospace" font-size="11.00">MLAMime</text>
</a>
</g>
<!-- \\MLAObjects -->
<g id="node10" class="node"><title>\\MLAObjects</title>
<a xlink:href="includes.class-mla-objects.html" xlink:title="MLAObjects" target="_parent">
<polygon fill="none" stroke="black" points="380,-484 296,-484 296,-448 380,-448 380,-484"/>
<text text-anchor="middle" x="338" y="-463.2" font-family="Courier,monospace" font-size="11.00">MLAObjects</text>
</a>
</g>
<!-- \\MLATextWidget -->
<g id="node11" class="node"><title>\\MLATextWidget</title>
<a xlink:href="includes.class-mla-objects.html" xlink:title="MLATextWidget" target="_parent">
<polygon fill="none" stroke="black" points="390,-106 286,-106 286,-70 390,-70 390,-106"/>
<text text-anchor="middle" x="338" y="-85.2" font-family="Courier,monospace" font-size="11.00">MLATextWidget</text>
</a>
</g>
<!-- \\WP_Widget -->
<g id="node25" class="node"><title>\\WP_Widget</title>
<ellipse fill="none" stroke="black" cx="78" cy="-88" rx="58.4896" ry="18"/>
<text text-anchor="middle" x="78" y="-84.3" font-family="Times New Roman,serif" font-size="14.00" fill="gray">\WP_Widget</text>
</g>
<!-- \\MLATextWidget&#45;&gt;\\WP_Widget -->
<g id="edge9" class="edge"><title>\\MLATextWidget&#45;&gt;\\WP_Widget</title>
<path fill="none" stroke="black" d="M285.719,-88C245.993,-88 190.59,-88 147.139,-88"/>
<polygon fill="none" stroke="black" points="146.933,-84.5001 136.933,-88 146.933,-91.5001 146.933,-84.5001"/>
</g>
<!-- \\MLAOptions -->
<g id="node12" class="node"><title>\\MLAOptions</title>
<a xlink:href="includes.class-mla-options.html" xlink:title="MLAOptions" target="_parent">
<polygon fill="none" stroke="black" points="380,-376 296,-376 296,-340 380,-340 380,-376"/>
<text text-anchor="middle" x="338" y="-355.2" font-family="Courier,monospace" font-size="11.00">MLAOptions</text>
</a>
</g>
<!-- \\MLASettings -->
<g id="node13" class="node"><title>\\MLASettings</title>
<a xlink:href="includes.class-mla-settings.html" xlink:title="MLASettings" target="_parent">
<polygon fill="none" stroke="black" points="383.5,-322 292.5,-322 292.5,-286 383.5,-286 383.5,-322"/>
<text text-anchor="middle" x="338" y="-301.2" font-family="Courier,monospace" font-size="11.00">MLASettings</text>
</a>
</g>
<!-- \\MLAShortcodes -->
<g id="node14" class="node"><title>\\MLAShortcodes</title>
<a xlink:href="includes.class-mla-shortcodes.html" xlink:title="MLAShortcodes" target="_parent">
<polygon fill="none" stroke="black" points="390,-268 286,-268 286,-232 390,-232 390,-268"/>
<text text-anchor="middle" x="338" y="-247.2" font-family="Courier,monospace" font-size="11.00">MLAShortcodes</text>
</a>
</g>
<!-- \\MLA_Upload_List_Table -->
<g id="node15" class="node"><title>\\MLA_Upload_List_Table</title>
<a xlink:href="includes.class-mla-upload-list-table.html" xlink:title="MLA_Upload_List_Table" target="_parent">
<polygon fill="none" stroke="black" points="417,-214 259,-214 259,-178 417,-178 417,-214"/>
<text text-anchor="middle" x="338" y="-193.2" font-family="Courier,monospace" font-size="11.00">MLA_Upload_List_Table</text>
</a>
</g>
<!-- \\MLA_Upload_List_Table&#45;&gt;\\WP_List_Table -->
<g id="edge11" class="edge"><title>\\MLA_Upload_List_Table&#45;&gt;\\WP_List_Table</title>
<path fill="none" stroke="black" d="M258.926,-210.634C245.73,-214.063 232.322,-218.162 220,-223 180.875,-238.361 139.567,-263.252 111.849,-281.393"/>
<polygon fill="none" stroke="black" points="109.751,-278.584 103.347,-287.024 113.616,-284.42 109.751,-278.584"/>
</g>
<!-- \\MLA_Upload_Optional_List_Table -->
<g id="node16" class="node"><title>\\MLA_Upload_Optional_List_Table</title>
<a xlink:href="includes.class-mla-upload-optional-list-table.html" xlink:title="MLA_Upload_Optional_List_Table" target="_parent">
<polygon fill="none" stroke="black" points="447.5,-160 228.5,-160 228.5,-124 447.5,-124 447.5,-160"/>
<text text-anchor="middle" x="338" y="-139.2" font-family="Courier,monospace" font-size="11.00">MLA_Upload_Optional_List_Table</text>
</a>
</g>
<!-- \\MLA_Upload_Optional_List_Table&#45;&gt;\\WP_List_Table -->
<g id="edge13" class="edge"><title>\\MLA_Upload_Optional_List_Table&#45;&gt;\\WP_List_Table</title>
<path fill="none" stroke="black" d="M239.712,-160.099C232.88,-162.682 226.236,-165.632 220,-169 169.304,-196.382 123.755,-246.937 98.877,-277.809"/>
<polygon fill="none" stroke="black" points="95.887,-275.946 92.4211,-285.958 101.374,-280.293 95.887,-275.946"/>
</g>
<!-- \\MLA_View_List_Table -->
<g id="node17" class="node"><title>\\MLA_View_List_Table</title>
<a xlink:href="includes.class-mla-view-list-table.html" xlink:title="MLA_View_List_Table" target="_parent">
<polygon fill="none" stroke="black" points="410.5,-700 265.5,-700 265.5,-664 410.5,-664 410.5,-700"/>
<text text-anchor="middle" x="338" y="-679.2" font-family="Courier,monospace" font-size="11.00">MLA_View_List_Table</text>
</a>
</g>
<!-- \\MLA_View_List_Table&#45;&gt;\\WP_List_Table -->
<g id="edge15" class="edge"><title>\\MLA_View_List_Table&#45;&gt;\\WP_List_Table</title>
<path fill="none" stroke="black" d="M265.408,-676.714C249.051,-672.629 232.75,-665.911 220,-655 119.09,-568.649 89.6198,-399.672 81.6923,-332.511"/>
<polygon fill="none" stroke="black" points="85.1381,-331.827 80.56,-322.273 78.1806,-332.597 85.1381,-331.827"/>
</g>
<!-- \\MLATest -->
<g id="node18" class="node"><title>\\MLATest</title>
<a xlink:href="tests.class-mla-tests.html" xlink:title="MLATest" target="_parent">
<polygon fill="none" stroke="black" points="370,-52 306,-52 306,-16 370,-16 370,-52"/>
<text text-anchor="middle" x="338" y="-31.2" font-family="Courier,monospace" font-size="11.00">MLATest</text>
</a>
</g>
</g>
</svg>
